<svg xmlns="http://www.w3.org/2000/svg" width="400" height="160" viewBox="0 0 400 160" role="img" aria-label="Now Vibing To: 天一亮我也该走了 by 阿钦">
  <defs>
    <linearGradient id="bg" x1="0" y1="0" x2="1" y2="1">
      <stop offset="0%" stop-color="#0D1117"/>
      <stop offset="100%" stop-color="#161B22"/>
    </linearGradient>
    <linearGradient id="art" x1="0" y1="0" x2="1" y2="1">
      <stop offset="0%" stop-color="#2d1b69"/>
      <stop offset="50%" stop-color="#1a0a3e"/>
      <stop offset="100%" stop-color="#0f0825"/>
    </linearGradient>
  </defs>
  <style>
    @keyframes tw {
      0%, 100% { opacity: .1 }
      50% { opacity: .7 }
    }
    @keyframes eq1 {
      0%, 100% { height: 10px; y: 132px; }
      50% { height: 38px; y: 104px; }
    }
    @keyframes eq2 {
      0%, 100% { height: 34px; y: 108px; }
      50% { height: 12px; y: 130px; }
    }
    @keyframes eq3 {
      0%, 100% { height: 8px; y: 134px; }
      50% { height: 40px; y: 102px; }
    }
    @keyframes eq4 {
      0%, 100% { height: 30px; y: 112px; }
      50% { height: 10px; y: 132px; }
    }
    @keyframes eq5 {
      0%, 100% { height: 12px; y: 130px; }
      50% { height: 36px; y: 106px; }
    }
    @keyframes pulse {
      0%, 100% { opacity: .6 }
      50% { opacity: 1 }
    }
    .star { fill: #FFD700 }
    .t1 { animation: tw 3s ease-in-out infinite }
    .t2 { animation: tw 3s ease-in-out .6s infinite }
    .t3 { animation: tw 2.8s ease-in-out 1.3s infinite }
    .t4 { animation: tw 3.5s ease-in-out 2s infinite }
    .t5 { animation: tw 2.5s ease-in-out .3s infinite }
    .t6 { animation: tw 3.2s ease-in-out 1.7s infinite }
    .t7 { animation: tw 2.6s ease-in-out 2.4s infinite }
    .b1 { animation: eq1 1.2s ease-in-out infinite; }
    .b2 { animation: eq2 0.9s ease-in-out .15s infinite; }
    .b3 { animation: eq3 1.05s ease-in-out .3s infinite; }
    .b4 { animation: eq4 0.85s ease-in-out .1s infinite; }
    .b5 { animation: eq5 1.1s ease-in-out .25s infinite; }
    .lbl { animation: pulse 3s ease-in-out infinite; }
  </style>

  <!-- Background -->
  <rect width="400" height="160" rx="12" fill="url(#bg)"/>

  <!-- Mint border glow -->
  <rect width="400" height="160" rx="12" fill="none" stroke="#90EE90" stroke-opacity="0.25" stroke-width="1"/>
  <rect x="1" y="1" width="398" height="158" rx="11" fill="none" stroke="#90EE90" stroke-opacity="0.06" stroke-width="0.5"/>

  <!-- Stars -->
  <circle class="star t1" cx="15" cy="12" r="1"/>
  <circle class="star t2" cx="58" cy="8" r=".7"/>
  <circle class="star t3" cx="145" cy="11" r=".9"/>
  <circle class="star t4" cx="225" cy="6" r="1"/>
  <circle class="star t5" cx="305" cy="13" r=".8"/>
  <circle class="star t6" cx="358" cy="8" r="1"/>
  <circle class="star t7" cx="388" cy="15" r=".7"/>
  <circle class="star t1" cx="370" cy="148" r=".8"/>
  <circle class="star t3" cx="32" cy="150" r=".7"/>
  <circle class="star t5" cx="190" cy="152" r=".6"/>
  <circle class="star t2" cx="285" cy="148" r=".7"/>
  <circle class="star t4" cx="92" cy="6" r=".5"/>
  <circle class="star t6" cx="255" cy="10" r=".6"/>
  <circle class="star t7" cx="340" cy="80" r=".4"/>
  <circle class="star t2" cx="168" cy="22" r=".5"/>
  <circle class="star t5" cx="380" cy="100" r=".5"/>

  <!-- Album art placeholder: gradient square -->
  <rect x="20" y="30" width="100" height="100" rx="12" fill="url(#art)"/>
  <rect x="20" y="30" width="100" height="100" rx="12" fill="none" stroke="#90EE90" stroke-opacity="0.15" stroke-width="0.5"/>

  <!-- Beamed eighth notes on album art -->
  <g transform="translate(48, 55)" opacity="0.18">
    <!-- Left note head -->
    <ellipse cx="4" cy="35" rx="11" ry="7" transform="rotate(-20, 4, 35)" fill="white"/>
    <!-- Right note head -->
    <ellipse cx="32" cy="31" rx="11" ry="7" transform="rotate(-20, 32, 31)" fill="white"/>
    <!-- Left stem -->
    <rect x="13" y="-2" width="3" height="37" rx="1.5" fill="white"/>
    <!-- Right stem -->
    <rect x="41" y="-6" width="3" height="37" rx="1.5" fill="white"/>
    <!-- Beam -->
    <polygon points="13,-2 16,-2 44,-6 44,-3 16,1 13,1" fill="white"/>
  </g>

  <!-- YouTube Music icon (red circle + play triangle) -->
  <circle cx="140" cy="44" r="8" fill="#FF0000"/>
  <polygon points="138,40 138,48 145,44" fill="white"/>

  <!-- "Now Vibing To" label -->
  <text class="lbl" x="153" y="48" font-family="'Segoe UI','Helvetica Neue',Arial,sans-serif" font-size="11" fill="#FFD700" font-weight="600">Now Vibing To</text>

  <!-- Song title -->
  <text x="140" y="76" font-family="'Segoe UI','Helvetica Neue',Arial,sans-serif" font-size="16" fill="#FFFFFF" font-weight="700">天一亮我也该走了</text>

  <!-- Artist -->
  <text x="140" y="96" font-family="'Segoe UI','Helvetica Neue',Arial,sans-serif" font-size="13" fill="#90EE90" font-weight="500">阿钦</text>

  <!-- EQ Bars — 5 tall animated bars, major visual element -->
  <rect class="b1" x="140" y="132" width="8" height="10" rx="2" fill="#90EE90" opacity=".85"/>
  <rect class="b2" x="153" y="108" width="8" height="34" rx="2" fill="#90EE90" opacity=".85"/>
  <rect class="b3" x="166" y="134" width="8" height="8"  rx="2" fill="#90EE90" opacity=".85"/>
  <rect class="b4" x="179" y="112" width="8" height="30" rx="2" fill="#90EE90" opacity=".85"/>
  <rect class="b5" x="192" y="130" width="8" height="12" rx="2" fill="#90EE90" opacity=".85"/>

</svg>