<svg xmlns="http://www.w3.org/2000/svg" viewBox="0 0 200 220" width="200" height="220">
  <style>
    @keyframes twinkle {
      0%, 100% { opacity: 0.3; }
      50% { opacity: 1; }
    }
    @keyframes gentle-spin {
      0% { transform: rotate(0deg); }
      100% { transform: rotate(360deg); }
    }
    @keyframes cloud-float {
      0%, 100% { transform: translateX(0); }
      50% { transform: translateX(6px); }
    }
    @keyframes rain-fall {
      0% { transform: translateY(0); opacity: 1; }
      100% { transform: translateY(8px); opacity: 0; }
    }
    @keyframes snow-fall {
      0% { transform: translateY(0) rotate(0deg); opacity: 1; }
      100% { transform: translateY(10px) rotate(45deg); opacity: 0; }
    }
    @keyframes fog-drift {
      0%, 100% { transform: translateX(0); opacity: 0.4; }
      50% { transform: translateX(8px); opacity: 0.6; }
    }
    @keyframes bob {
      0%, 100% { transform: translateY(0); }
      50% { transform: translateY(-3px); }
    }
    .star { animation: twinkle 3s ease-in-out infinite; }
    .star-d1 { animation-delay: 0s; }
    .star-d2 { animation-delay: 0.8s; }
    .star-d3 { animation-delay: 1.6s; }
    .star-d4 { animation-delay: 2.2s; }
    .star-d5 { animation-delay: 0.4s; }
    .cloud-float { animation: cloud-float 4s ease-in-out infinite; }
    .rain-fall { animation: rain-fall 1s ease-in infinite; }
    .snow-fall { animation: snow-fall 2s ease-in infinite; }
    .fog-drift { animation: fog-drift 5s ease-in-out infinite; }
    .globe-bob { animation: bob 4s ease-in-out infinite; }
    text { font-family: -apple-system, 'Segoe UI', sans-serif; }
  </style>

  <!-- background -->
  <rect width="200" height="220" rx="16" fill="#F0F4FF" stroke="#000" stroke-width="2.5"/>

  <!-- decorative stars/dots -->
  <circle cx="20" cy="20" r="2" fill="#000" class="star star-d1"/>
  <circle cx="175" cy="18" r="1.5" fill="#000" class="star star-d2"/>
  <circle cx="15" cy="85" r="1.5" fill="#000" class="star star-d3"/>
  <circle cx="185" cy="90" r="2" fill="#000" class="star star-d4"/>
  <circle cx="30" cy="50" r="1" fill="#000" class="star star-d5"/>
  <circle cx="170" cy="130" r="1.5" fill="#000" class="star star-d1"/>
  <circle cx="22" cy="140" r="1" fill="#000" class="star star-d3"/>

  <!-- small doodle daisies -->
  <g transform="translate(172,70)" class="star star-d2">
    <circle cx="0" cy="0" r="2" fill="#FFD700"/>
    <circle cx="0" cy="-4" r="1.5" fill="#fff" stroke="#000" stroke-width="0.5"/>
    <circle cx="3.8" cy="-1.2" r="1.5" fill="#fff" stroke="#000" stroke-width="0.5"/>
    <circle cx="2.4" cy="3.2" r="1.5" fill="#fff" stroke="#000" stroke-width="0.5"/>
    <circle cx="-2.4" cy="3.2" r="1.5" fill="#fff" stroke="#000" stroke-width="0.5"/>
    <circle cx="-3.8" cy="-1.2" r="1.5" fill="#fff" stroke="#000" stroke-width="0.5"/>
  </g>
  <g transform="translate(28,110)" class="star star-d4">
    <circle cx="0" cy="0" r="1.5" fill="#FFD700"/>
    <circle cx="0" cy="-3" r="1" fill="#fff" stroke="#000" stroke-width="0.5"/>
    <circle cx="2.8" cy="-1" r="1" fill="#fff" stroke="#000" stroke-width="0.5"/>
    <circle cx="1.8" cy="2.4" r="1" fill="#fff" stroke="#000" stroke-width="0.5"/>
    <circle cx="-1.8" cy="2.4" r="1" fill="#fff" stroke="#000" stroke-width="0.5"/>
    <circle cx="-2.8" cy="-1" r="1" fill="#fff" stroke="#000" stroke-width="0.5"/>
  </g>

  <!-- globe group -->
  <g class="globe-bob">
    <!-- ocean circle -->
    <circle cx="100" cy="95" r="52" fill="#87CEEB" stroke="#000" stroke-width="3"/>

    <!-- simplified doodle continents (cute blobs, not accurate) -->
    <!-- North America blob -->
    <path d="M72,68 Q78,60 90,62 Q96,60 98,65 Q102,62 105,68 Q108,75 104,82
             Q100,88 95,86 Q88,90 82,86 Q76,82 72,75 Z"
          fill="#90EE90" stroke="#000" stroke-width="2.5" stroke-linejoin="round"/>

    <!-- South America blob -->
    <path d="M92,98 Q96,94 100,97 Q103,100 102,108 Q100,116 96,120
             Q92,118 90,112 Q88,106 90,102 Z"
          fill="#90EE90" stroke="#000" stroke-width="2.5" stroke-linejoin="round"/>

    <!-- Europe/Africa blob -->
    <path d="M112,72 Q116,68 120,72 Q122,78 120,85 Q118,92 116,98
             Q114,104 110,108 Q108,104 108,96 Q106,88 108,80 Q110,76 112,72 Z"
          fill="#90EE90" stroke="#000" stroke-width="2.5" stroke-linejoin="round"/>

    <!-- Asia blob -->
    <path d="M122,66 Q128,62 134,66 Q138,70 140,76 Q138,80 134,82
             Q130,84 126,80 Q122,76 120,72 Z"
          fill="#90EE90" stroke="#000" stroke-width="2.5" stroke-linejoin="round"/>

    <!-- Australia blob -->
    <path d="M130,100 Q136,97 140,100 Q142,104 138,108 Q134,110 130,106 Z"
          fill="#90EE90" stroke="#000" stroke-width="2" stroke-linejoin="round"/>

    <!-- globe shine (cute doodle highlight) -->
    <path d="M70,72 Q72,65 78,62" fill="none" stroke="#fff" stroke-width="2.5" stroke-linecap="round" opacity="0.6"/>
  </g>

  <!-- weather overlay -->
  
    <!-- clouds -->
    <g class="cloud-float">
      <circle cx="138" cy="38" r="10" fill="#fff" stroke="#000" stroke-width="2"/>
      <circle cx="152" cy="34" r="13" fill="#fff" stroke="#000" stroke-width="2"/>
      <circle cx="166" cy="38" r="10" fill="#fff" stroke="#000" stroke-width="2"/>
      <rect x="132" y="38" width="40" height="10" rx="4" fill="#fff" stroke="none"/>
      <line x1="132" y1="42" x2="172" y2="42" stroke="#000" stroke-width="2" stroke-linecap="round"/>
    </g>

    <circle cx="125" cy="40" r="10" fill="#FFD700" stroke="#000" stroke-width="2" opacity="0.7"/>

  <!-- temperature display -->
  <text x="100" y="168" text-anchor="middle" font-size="22" font-weight="bold" fill="#000" stroke="#fff" stroke-width="3" paint-order="stroke">59°F</text>

  <!-- condition label -->
  <text x="100" y="184" text-anchor="middle" font-size="10" fill="#000" opacity="0.8">Overcast</text>

  <!-- location label -->
  <text x="100" y="200" text-anchor="middle" font-size="9" fill="#000" opacity="0.6">📍 Menlo Park, CA</text>

  <!-- timestamp -->
  <text x="100" y="214" text-anchor="middle" font-size="7" fill="#000" opacity="0.4">Updated Mar 02, 10:33 AM PST</text>
</svg>